<svg width="45" height="45" viewBox="0 0 45 45" fill="none" xmlns="http://www.w3.org/2000/svg">
<path d="M45 22.5C45 34.9264 34.9264 45 22.5 45C10.0736 45 0 34.9264 0 22.5C0 10.0736 10.0736 0 22.5 0C34.9264 0 45 10.0736 45 22.5Z" fill="#C7B198"/>
<path d="M45 22.5C45 34.9264 34.9264 45 22.5 45C10.0736 45 0 34.9264 0 22.5C0 10.0736 10.0736 0 22.5 0C34.9264 0 45 10.0736 45 22.5Z" fill="#C7B198"/>
<path d="M16.6857 21.9837L26.1754 12.1929C26.6329 11.7209 27.3751 11.7209 27.8326 12.1929L28.9396 13.335C29.3966 13.8066 29.3971 14.5703 28.9415 15.0429L21.4205 22.8386L28.941 30.6349C29.3971 31.1074 29.3961 31.8712 28.9391 32.3427L27.8321 33.4848C27.3746 33.9569 26.6324 33.9569 26.1749 33.4848L16.6857 23.6936C16.2281 23.2215 16.2281 22.4557 16.6857 21.9837Z" fill="white"/>
</svg>
