<svg width="45" height="45" viewBox="0 0 45 45" fill="none" xmlns="http://www.w3.org/2000/svg">
<path d="M45 22.5C45 34.9264 34.9264 45 22.5 45C10.0736 45 0 34.9264 0 22.5C0 10.0736 10.0736 0 22.5 0C34.9264 0 45 10.0736 45 22.5Z" fill="#C7B198"/>
<path d="M45 22.5C45 34.9264 34.9264 45 22.5 45C10.0736 45 0 34.9264 0 22.5C0 10.0736 10.0736 0 22.5 0C34.9264 0 45 10.0736 45 22.5Z" fill="#C7B198"/>
<path d="M28.9393 23.3286L19.4498 32.818C18.9922 33.2756 18.2502 33.2756 17.7926 32.818L16.6858 31.7112C16.2289 31.2543 16.228 30.5138 16.6838 30.0558L24.2044 22.4999L16.6838 14.944C16.228 14.486 16.2289 13.7455 16.6858 13.2887L17.7926 12.1819C18.2502 11.7242 18.9922 11.7242 19.4498 12.1819L28.9392 21.6713C29.3969 22.1289 29.3969 22.8709 28.9393 23.3286Z" fill="white"/>
</svg>
